<svg width="38" height="36" viewBox="0 0 52 49" fill="none" xmlns="http://www.w3.org/2000/svg">
<path d="M14.7818 28.2175C11.6202 30.1145 3.75119 35.4541 3.68093 35.3839C3.25938 34.8218 2.55679 33.8382 1.78395 33.8382C1.0111 33.8382 0.800322 34.6813 0.870581 35.3136C1.0111 36.227 2.34601 38.405 3.82144 38.405C4.17274 38.3347 4.45377 38.124 4.52403 37.7727C4.59429 37.2809 4.38352 36.6485 4.10249 36.1567C7.54516 34.5408 12.674 32.2925 16.0465 30.4658C16.8193 29.974 15.4141 27.8662 14.7818 28.2175Z" fill="white"/>
<path d="M32.9084 14.8685C34.4541 11.4961 37.8968 2.6435 37.9671 2.71376C38.5994 2.92453 39.7938 3.34608 40.4261 2.92453C41.0584 2.50298 40.7774 1.65988 40.3559 1.16806C39.7235 0.465478 37.405 -0.518144 36.2106 0.32496C35.9296 0.535736 35.8593 0.88703 35.9998 1.30858C36.2106 1.80039 36.7024 2.15169 37.2645 2.43272C35.3675 5.73488 32.4166 10.4422 30.6602 13.8849C30.3089 14.5172 32.6274 15.5008 32.9084 14.8685Z" fill="white"/>
<path d="M35.1568 33.6977C37.4051 36.6486 43.5878 43.8852 43.5176 43.9555C43.0258 44.377 42.1124 45.2904 42.1827 46.0632C42.2529 46.8361 43.1663 46.9766 43.7284 46.7658C44.6417 46.555 46.609 45.0094 46.4685 43.5339C46.3982 43.1826 46.1874 42.9016 45.6956 42.9016C45.2038 42.8313 44.5715 43.1124 44.0797 43.4637C42.1124 40.2318 39.3021 35.3839 37.0538 32.2223C36.7025 31.5197 34.7353 33.1356 35.1568 33.6977Z" fill="white"/>
<path d="M36.3512 27.2338C39.9344 27.9364 49.4194 29.2713 49.3491 29.3416C49.2788 30.0442 49.2086 31.2386 49.7707 31.8006C50.3327 32.2924 51.0353 31.8006 51.4569 31.3088C51.9487 30.536 52.4405 28.0769 51.3163 27.0933C51.0353 26.8825 50.684 26.8825 50.3327 27.0933C49.9112 27.3743 49.7004 28.0067 49.5599 28.5687C45.9064 27.4446 40.637 25.6881 36.843 24.845C36.0702 24.564 35.6486 27.0933 36.3512 27.2338Z" fill="white"/>
<path d="M18.7163 17.7492C15.6952 15.6414 7.47491 10.7936 7.54517 10.7233C7.89646 10.1613 8.45853 9.03712 8.10724 8.33453C7.75595 7.63194 6.91284 7.77246 6.35077 8.12376C5.57793 8.61557 4.17275 10.7233 4.80508 12.0582C5.01586 12.3393 5.2969 12.5501 5.71845 12.4095C6.21026 12.269 6.70206 11.8475 7.05336 11.3557C9.93396 13.7445 14.1495 17.4682 17.3111 19.7867C17.9435 20.3488 19.3486 18.1707 18.7163 17.7492Z" fill="white"/>
<path d="M21.3159 6.71818C26.5151 5.31301 32.206 7.06948 36.4918 10.0906C40.6371 13.0415 44.7823 18.1703 45.0634 23.4398C45.5552 34.8217 33.6112 43.1824 24.1263 40.9342C14.0793 38.5454 7.12367 26.6716 10.6366 16.9057C12.3228 12.0578 16.2573 8.0531 21.3159 6.71818Z" fill="white"/>
<path d="M27.2174 39.8102C22.5101 39.6697 18.154 36.8593 15.2734 33.2059C12.5333 29.7632 10.2148 24.3533 11.3389 19.8567C13.6575 10.161 25.8122 6.08602 33.2596 10.2313C41.1286 14.6576 44.0795 26.3908 38.7398 33.7679C36.07 37.4917 31.7842 39.8804 27.2174 39.8102Z" fill="white"/>
<path d="M22.0885 38.3349C21.2454 40.6534 19.4187 46.8362 19.3484 46.7659C18.9269 46.6254 18.0838 46.4849 17.6622 46.7659C17.2407 47.1172 17.5217 47.609 17.8027 47.8901C18.2243 48.3116 19.8403 48.8737 20.6131 48.2414C20.7536 48.1009 20.8239 47.8198 20.6833 47.609C20.5428 47.328 20.1213 47.047 19.77 46.9065C20.8941 44.5879 22.5803 41.2155 23.564 38.8267C23.9153 38.4052 22.2993 37.9133 22.0885 38.3349Z" fill="white"/>
<path d="M14.7819 24.8451C12.3228 24.9153 5.92926 25.4071 5.92926 25.3369C5.859 24.8451 5.78874 24.0722 5.29693 23.7912C4.87538 23.5102 4.45383 23.9317 4.31332 24.3533C4.10254 24.9153 4.1728 26.6718 5.0159 27.0934C5.22668 27.1636 5.43745 27.1636 5.64823 26.9528C5.859 26.6718 5.92926 26.2502 5.92926 25.8287C8.45857 26.0395 12.2525 26.3908 14.8521 26.461C15.3439 26.5313 15.2737 24.7748 14.7819 24.8451Z" fill="white"/>
<path d="M19.7701 12.9014C18.5757 10.7233 15.2736 5.24317 15.2736 5.24317C15.6951 4.96213 16.3275 4.54058 16.3977 3.97851C16.3977 3.4867 15.8356 3.27592 15.4141 3.34618C14.7818 3.41644 13.3063 4.25954 13.2361 5.24317C13.2361 5.45394 13.3766 5.66472 13.6576 5.73498C14.0089 5.80524 14.4305 5.66472 14.7818 5.5242C15.7654 7.913 17.1003 11.4259 18.2947 13.7445C18.5757 14.166 20.0512 13.3229 19.7701 12.9014Z" fill="white"/>
<path d="M26.6557 13.604C26.7962 11.145 26.7962 4.75144 26.8664 4.75144C27.3583 4.75144 28.1311 4.68118 28.4824 4.25963C28.7634 3.83808 28.4121 3.41653 27.9906 3.20575C27.4285 2.92472 25.7423 2.85446 25.1802 3.69756C25.11 3.90834 25.11 4.11911 25.2505 4.32989C25.4613 4.61093 25.8828 4.68118 26.3044 4.75144C25.8828 7.28076 25.1802 11.0045 24.9695 13.5338C24.8992 14.0256 26.6557 14.0958 26.6557 13.604Z" fill="white"/>
<path d="M36.843 20.6297C39.0913 19.6461 44.7823 16.625 44.7823 16.6952C44.993 17.1168 45.4146 17.8194 45.9767 17.8896C46.4685 17.9599 46.6793 17.3978 46.6793 16.9763C46.6793 16.3439 45.9767 14.7982 44.9228 14.6577C44.712 14.6577 44.5012 14.7982 44.3607 15.0793C44.2202 15.4306 44.3607 15.8521 44.5012 16.2034C42.1124 17.0465 38.459 18.1004 36.0702 19.084C35.6486 19.2948 36.3512 20.8405 36.843 20.6297Z" fill="white"/>
<path d="M33.1894 35.6652C34.1028 37.9837 36.7726 43.8152 36.7024 43.8152C36.2808 44.026 35.5782 44.4475 35.4377 44.9393C35.3675 45.4312 35.9295 45.7122 36.3511 45.7122C36.9834 45.7122 38.5291 45.0799 38.7399 44.0962C38.7399 43.8855 38.6696 43.6747 38.3886 43.5342C38.0373 43.3936 37.6157 43.4639 37.2645 43.6044C36.5619 41.1454 35.6485 37.4919 34.8054 35.0329C34.5946 34.5411 32.9787 35.2436 33.1894 35.6652Z" fill="white"/>
<path d="M19.9809 31.8008C18.2947 31.7306 16.749 30.7469 15.6952 29.412C14.7115 28.1474 13.8684 26.2504 14.29 24.6344C15.1331 21.1215 19.4891 19.6461 22.159 21.1918C24.9693 22.8077 26.0232 27.0232 24.1262 29.6931C23.1426 30.9577 21.5969 31.8008 19.9809 31.8008Z" fill="white"/>
<path d="M28.2714 29.4822C28.5524 28.2175 29.5361 27.2339 30.6602 26.6718C31.7141 26.1097 33.33 25.8287 34.4542 26.3205C36.9132 27.4447 37.405 30.9576 35.8593 32.7141C34.2434 34.611 30.9412 34.7516 29.255 32.9248C28.4119 32.0115 27.9904 30.7468 28.2714 29.4822Z" fill="white"/>
<path d="M27.4985 19.8567C27.7093 19.0839 28.3416 18.3813 29.0442 18.03C29.7468 17.6787 30.7304 17.4679 31.5033 17.8192C33.1192 18.5218 33.4002 20.7701 32.4166 21.8942C31.3627 23.0886 29.255 23.2291 28.2011 22.0347C27.5688 21.4727 27.358 20.6296 27.4985 19.8567Z" fill="white"/>
</svg>
