<svg width="38" height="36" viewBox="0 0 52 49" fill="none" xmlns="http://www.w3.org/2000/svg">
<g id="virus icon">
<g id="Vector">
<path d="M14.7823 28.2177C11.6207 30.1147 3.75168 35.4543 3.68142 35.3841C3.25986 34.822 2.55728 33.8384 1.78443 33.8384C1.01159 33.8384 0.80081 34.6815 0.871069 35.3138C1.01159 36.2272 2.3465 38.4052 3.82193 38.4052C4.17323 38.3349 4.45426 38.1242 4.52452 37.7729C4.59478 37.281 4.38401 36.6487 4.10297 36.1569C7.54565 34.541 12.6745 32.2927 16.047 30.466C16.8198 29.9741 15.4146 27.8664 14.7823 28.2177Z" fill="black"/>
<path d="M32.9089 14.8685C34.4546 11.4961 37.8973 2.6435 37.9676 2.71376C38.5999 2.92453 39.7943 3.34608 40.4266 2.92453C41.0589 2.50298 40.7779 1.65988 40.3563 1.16806C39.724 0.465478 37.4055 -0.518144 36.2111 0.32496C35.93 0.535736 35.8598 0.88703 36.0003 1.30858C36.2111 1.80039 36.7029 2.15169 37.265 2.43272C35.368 5.73488 32.4171 10.4422 30.6607 13.8849C30.3094 14.5172 32.6279 15.5008 32.9089 14.8685Z" fill="black"/>
<path d="M35.1573 33.6978C37.4056 36.6487 43.5883 43.8853 43.5181 43.9556C43.0263 44.3771 42.1129 45.2905 42.1832 46.0634C42.2534 46.8362 43.1668 46.9767 43.7289 46.7659C44.6422 46.5552 46.6095 45.0095 46.4689 43.534C46.3987 43.1827 46.1879 42.9017 45.6961 42.9017C45.2043 42.8315 44.572 43.1125 44.0801 43.4638C42.1129 40.2319 39.3026 35.384 37.0543 32.2224C36.703 31.5198 34.7357 33.1358 35.1573 33.6978Z" fill="black"/>
<path d="M36.3517 27.234C39.9349 27.9366 49.4198 29.2715 49.3496 29.3418C49.2793 30.0443 49.2091 31.2387 49.7711 31.8008C50.3332 32.2926 51.0358 31.8008 51.4573 31.309C51.9492 30.5362 52.441 28.0771 51.3168 27.0935C51.0358 26.8827 50.6845 26.8827 50.3332 27.0935C49.9117 27.3745 49.7009 28.0068 49.5604 28.5689C45.9069 27.4448 40.6375 25.6883 36.8435 24.8452C36.0707 24.5642 35.6491 27.0935 36.3517 27.234Z" fill="black"/>
<path d="M18.7168 17.7491C15.6957 15.6414 7.4754 10.7935 7.54566 10.7233C7.89695 10.1612 8.45902 9.03706 8.10773 8.33447C7.75643 7.63188 6.91333 7.7724 6.35126 8.12369C5.57841 8.61551 4.17324 10.7233 4.80557 12.0582C5.01635 12.3392 5.29738 12.55 5.71894 12.4095C6.21075 12.269 6.70255 11.8474 7.05385 11.3556C9.93445 13.7444 14.15 17.4681 17.3116 19.7866C17.9439 20.3487 19.3491 18.1707 18.7168 17.7491Z" fill="black"/>
<path d="M21.3164 6.71849C26.5155 5.31331 32.2065 7.06978 36.4923 10.0909C40.6375 13.0418 44.7828 18.1707 45.0638 23.4401C45.5557 34.822 33.6117 43.1827 24.1268 40.9345C14.0798 38.5457 7.12415 26.672 10.6371 16.906C12.3233 12.0581 16.2578 8.0534 21.3164 6.71849Z" fill="black"/>
<path d="M27.2179 39.8104C22.5105 39.6699 18.1545 36.8595 15.2739 33.2061C12.5338 29.7634 10.2153 24.3535 11.3394 19.8569C13.658 10.1612 25.8127 6.0862 33.2601 10.2315C41.1291 14.6578 44.08 26.391 38.7403 33.7681C36.0705 37.4918 31.7847 39.8806 27.2179 39.8104Z" fill="black"/>
<path d="M22.089 38.3349C21.2459 40.6534 19.4192 46.8362 19.3489 46.7659C18.9274 46.6254 18.0843 46.4849 17.6627 46.7659C17.2412 47.1172 17.5222 47.609 17.8032 47.8901C18.2248 48.3116 19.8407 48.8737 20.6136 48.2414C20.7541 48.1009 20.8244 47.8198 20.6838 47.609C20.5433 47.328 20.1218 47.047 19.7705 46.9065C20.8946 44.5879 22.5808 41.2155 23.5644 38.8267C23.9157 38.4051 22.2998 37.9133 22.089 38.3349Z" fill="black"/>
<path d="M14.7823 24.8453C12.3233 24.9156 5.92975 25.4074 5.92975 25.3371C5.85949 24.8453 5.78923 24.0725 5.29742 23.7914C4.87587 23.5104 4.45432 23.932 4.3138 24.3535C4.10303 24.9156 4.17329 26.672 5.01639 27.0936C5.22717 27.1639 5.43794 27.1639 5.64872 26.9531C5.85949 26.672 5.92975 26.2505 5.92975 25.8289C8.45906 26.0397 12.253 26.391 14.8526 26.4613C15.3444 26.5315 15.2742 24.7751 14.7823 24.8453Z" fill="black"/>
<path d="M19.7706 12.9012C18.5762 10.7232 15.2741 5.24304 15.2741 5.24304C15.6956 4.96201 16.328 4.54046 16.3982 3.97839C16.3982 3.48658 15.8361 3.2758 15.4146 3.34606C14.7823 3.41632 13.3068 4.25942 13.2366 5.24304C13.2366 5.45382 13.3771 5.6646 13.6581 5.73485C14.0094 5.80511 14.431 5.6646 14.7823 5.52408C15.7659 7.91287 17.1008 11.4258 18.2952 13.7443C18.5762 14.1659 20.0517 13.3228 19.7706 12.9012Z" fill="black"/>
<path d="M26.6562 13.6039C26.7967 11.1448 26.7967 4.75126 26.8669 4.75126C27.3587 4.75126 28.1316 4.681 28.4829 4.25945C28.7639 3.8379 28.4126 3.41635 27.9911 3.20557C27.429 2.92453 25.7428 2.85428 25.1807 3.69738C25.1105 3.90816 25.1105 4.11893 25.251 4.32971C25.4618 4.61074 25.8833 4.681 26.3049 4.75126C25.8833 7.28057 25.1807 11.0043 24.9699 13.5336C24.8997 14.0254 26.6562 14.0957 26.6562 13.6039Z" fill="black"/>
<path d="M36.8435 20.6296C39.0918 19.646 44.7828 16.6249 44.7828 16.6952C44.9935 17.1167 45.4151 17.8193 45.9772 17.8896C46.469 17.9598 46.6797 17.3977 46.6797 16.9762C46.6797 16.3439 45.9772 14.7982 44.9233 14.6577C44.7125 14.6577 44.5017 14.7982 44.3612 15.0792C44.2207 15.4305 44.3612 15.8521 44.5017 16.2033C42.1129 17.0464 38.4595 18.1003 36.0707 19.084C35.6491 19.2947 36.3517 20.8404 36.8435 20.6296Z" fill="black"/>
<path d="M33.1899 35.6651C34.1033 37.9836 36.7731 43.8151 36.7029 43.8151C36.2813 44.0259 35.5787 44.4474 35.4382 44.9392C35.368 45.431 35.93 45.7121 36.3516 45.7121C36.9839 45.7121 38.5296 45.0797 38.7404 44.0961C38.7404 43.8853 38.6701 43.6746 38.3891 43.534C38.0378 43.3935 37.6162 43.4638 37.2649 43.6043C36.5624 41.1453 35.649 37.4918 34.8059 35.0327C34.5951 34.5409 32.9792 35.2435 33.1899 35.6651Z" fill="black"/>
<path d="M19.9814 31.8008C18.2952 31.7306 16.7495 30.7469 15.6956 29.412C14.712 28.1474 13.8689 26.2504 14.2905 24.6344C15.1336 21.1215 19.4896 19.6461 22.1594 21.1918C24.9698 22.8077 26.0237 27.0232 24.1267 29.6931C23.1431 30.9577 21.5974 31.8008 19.9814 31.8008Z" fill="black"/>
<path d="M28.2719 29.4823C28.5529 28.2176 29.5365 27.234 30.6607 26.6719C31.7146 26.1099 33.3305 25.8288 34.4547 26.3206C36.9137 27.4448 37.4055 30.9577 35.8598 32.7142C34.2439 34.6112 30.9417 34.7517 29.2555 32.925C28.4124 32.0116 27.9909 30.7469 28.2719 29.4823Z" fill="black"/>
<path d="M27.499 19.8569C27.7098 19.084 28.3421 18.3815 29.0447 18.0302C29.7473 17.6789 30.7309 17.4681 31.5037 17.8194C33.1197 18.522 33.4007 20.7703 32.4171 21.8944C31.3632 23.0888 29.2555 23.2293 28.2016 22.0349C27.5693 21.4728 27.3585 20.6297 27.499 19.8569Z" fill="black"/>
</g>
</g>
</svg>
